<?xml version="1.0" encoding="utf-8"?>
<!-- Generator: Adobe Illustrator 24.1.1, SVG Export Plug-In . SVG Version: 6.00 Build 0)  -->
<svg version="1.1" id="Layer_1" xmlns="http://www.w3.org/2000/svg" xmlns:xlink="http://www.w3.org/1999/xlink" x="0px" y="0px"
	 viewBox="0 0 173.9 176.39" style="enable-background:new 0 0 173.9 176.39;" xml:space="preserve">
<style type="text/css">
	.st0{fill:#4CAF50;}
	.st1{fill:#FFFFFF;}
</style>
<g>
	<path class="st0" d="M167.17,89.47c0.43,46.39-38.13,81.57-80.65,81.96C44,171.82,4.14,138.19,4.06,89.67
		C3.99,41.71,42.55,9.14,82.81,7.76C129.34,6.17,167.65,44.21,167.17,89.47z M41.86,77.32c-6.62,6.73-12.3,12.56-18.05,18.33
		c-2.36,2.37-0.56,3.76,1,5.32c12.49,12.48,25.03,24.92,37.39,37.52c2.66,2.72,4.15,2.46,6.76-0.18
		c23.07-23.32,46.27-46.52,69.51-69.66c3.63-3.61,7.7-6.78,12.29-10.8c-6.67-6.45-12.16-11.5-17.32-16.87
		c-2.62-2.73-4.19-3.09-7.13-0.1C107.66,59.9,88.78,78.69,69.96,97.54c-1.36,1.36-2.84,2.59-4.88,4.44
		C57.28,93.71,49.89,85.85,41.86,77.32z"/>
	<path class="st1" d="M41.86,77.32c8.03,8.53,15.43,16.39,23.22,24.66c2.04-1.85,3.53-3.08,4.88-4.44
		c18.82-18.85,37.7-37.64,56.36-56.66c2.93-2.99,4.51-2.63,7.13,0.1c5.16,5.37,10.65,10.42,17.32,16.87
		c-4.59,4.01-8.66,7.19-12.29,10.8c-23.25,23.14-46.45,46.34-69.51,69.66c-2.61,2.64-4.1,2.9-6.76,0.18
		c-12.36-12.61-24.9-25.04-37.39-37.52c-1.57-1.57-3.36-2.95-1-5.32C29.56,89.88,35.24,84.05,41.86,77.32z"/>
</g>
</svg>
