<?xml version="1.0" encoding="utf-8"?>
<!-- Generator: Adobe Illustrator 24.1.1, SVG Export Plug-In . SVG Version: 6.00 Build 0)  -->
<svg version="1.1" id="Layer_1" xmlns="http://www.w3.org/2000/svg" xmlns:xlink="http://www.w3.org/1999/xlink" x="0px" y="0px"
	 viewBox="0 0 3352.94 3323.53" style="enable-background:new 0 0 3352.94 3323.53;" xml:space="preserve">
<style type="text/css">
	.st0{fill:#4CAF50;}
	.st1{fill:#F9F9F9;stroke:#FFFFFF;stroke-width:108;stroke-miterlimit:10;}
</style>
<path class="st0" d="M1679.6,3288.26L1679.6,3288.26c-897.74,0-1625.49-727.76-1625.49-1625.49v0
	C54.11,765.03,781.86,37.27,1679.6,37.27h0c897.73,0,1625.49,727.76,1625.49,1625.49v0
	C3305.09,2560.5,2577.33,3288.26,1679.6,3288.26z"/>
<path class="st1" d="M2219.39,1385.23l-721.6,241.72c-42.83-55.16-4.22-116.81,78.84-146.98
	c119.82-46.78,243.92-81.77,370.53-104.48c149.58-22.71,303.04-20.77,442.56-28.88l17.52,124.59
	c-432.18,327.38-634.64,792.65-807.25,1310.81c0-343.93,140.49-616.47,289.74-903.29c-202.79,150.22-387.4,292.01-576.89,425.37
	c-63.25,42.46-132.47,75.27-205.38,97.34c-206.36,67.16-365.34-36.34-337.76-249.83c21.37-194.48,79.04-383.23,170.02-556.45
	c212.35-393.83,542.46-711.46,944.17-908.48c101.53-47.22,208.41-81.97,318.29-103.5c172.94-36.01,283.58,66.84,249.51,236.21
	c-31.82,173.3-151.73,317.44-316.35,380.27c-36.75,9.09-75.62,2.88-107.72-17.2c-16.55-10.06-16.55-55.16-14.28-83.71
	c6.35-16.8,20.97-29.09,38.61-32.45c165.47-6.49,346.52-168.72,354.96-321.21c3.54-75.9-55.11-140.29-131-143.84
	c-9.03-0.42-18.07,0.05-27.01,1.4c-76.41,5.1-150.96,25.86-219.01,61c-528.54,311.16-920.81,740.09-1106.4,1330.28
	c-26.61,84.68-22.06,216.74,28.23,279.03c72.03,88.9,204.73,45.75,289.42-12.65c227.12-156.39,449.7-324.46,666.76-495.45
	c122-97.34,230.37-210.57,344.9-317L2219.39,1385.23z"/>
</svg>
