<svg id="Layer_1" data-name="Layer 1" xmlns="http://www.w3.org/2000/svg" viewBox="0 0 312.58 98.8"><defs><style>.cls-1,.cls-2{fill:#f9f9f9;}.cls-2{stroke:#fff;}.cls-2,.cls-3{stroke-miterlimit:10;}.cls-3{fill:none;stroke:#37c348;stroke-width:2px;}</style></defs><path class="cls-1" d="M153.05,58.35l-8.93,8-2.3-6.5c-1.82,1.34-3.89,3-6.1,4.4-.71.46-2.15.76-2.64.37a3.43,3.43,0,0,1-1.14-2.76,22.62,22.62,0,0,1,10-15.12c.63-.42,2.16.52,3.14.79L135,61.44l1.35,1.31q5.06-4,10.13-8.06c2.81-2.22,5.44-4.76,8.53-6.5,2.12-1.19,4.91-1.17,7.36-1.84a5,5,0,0,0,2.54-1.44c3.09-4,6.19-8.06,9-12.29.72-1.11.58-3,.37-4.42s-1.19-2.45-1.57-3.75c-1-3.58,1.05-5.87,4.77-5.27a14,14,0,0,1,2.81.92c2.11.83,4.22,2.78,6.39.26s4.05-5.46,2.7-9.1c-.69-1.85-2-3.52-2.4-5.4-.36-1.54-.44-3.78.43-4.78s3.12-1.21,4.68-1S195.33,1.32,197,2l-.35,1.29c-1.4-.28-2.78-.65-4.19-.82a31.73,31.73,0,0,0-3.52-.05c.13,1.15,0,2.45.44,3.41,1.79,3.48,3.81,6.84,6.18,11l3.24-5-3.76.37a7,7,0,0,1-.3-.92,44.45,44.45,0,0,1,4.74-2.11c.19-.06,1.32,1.37,1.19,1.9a12.37,12.37,0,0,1-1.94,4.66c-1.67,2.11-2,4-.8,6.46,1.35,2.69,2.63,5.95-.14,8.21s-5.62.2-8.12-1.49c-3.29-2.22-6.49-4.58-9.89-6.62-1.14-.68-2.77-.55-4.18-.79a36.9,36.9,0,0,0,.36,4.48,10.66,10.66,0,0,0,1.3,2.59c2.64-.35,4.69-5.3,7.74-.32-12.37,8.44-18.87,21.39-26.33,33.64l.73.78,5.4-3.39-.08-.09a55.27,55.27,0,0,1-5.05,5c-.72.56-2.68.67-3.16.15a4.81,4.81,0,0,1-.85-3.5c.14-1.14,1.19-2.13,1.54-3.28.16-.5-.41-1.23-.65-1.85l7.22-8c-6.15-.17-15.82,8.53-17.45,14.84Zm45-30.44c-.28-.63-.55-1.26-.82-1.89l-3.89-5-4.61,3.74A58.65,58.65,0,0,0,195,28.79C195.71,29.14,197,28.24,198.08,27.91Z" transform="translate(-2.76)"/><path class="cls-1" d="M47.53,34.72,25.29,42.17c-1.32-1.7-.13-3.6,2.43-4.53a61,61,0,0,1,11.42-3.22c4.61-.7,9.34-.64,13.64-.89l.54,3.84C40,47.46,33.76,61.8,28.44,77.77c0-10.6,4.33-19,8.93-27.84-6.25,4.63-11.94,9-17.78,13.11a23.64,23.64,0,0,1-6.33,3C6.9,68.11,2,64.92,2.85,58.34A48.2,48.2,0,0,1,8.09,41.19a66.16,66.16,0,0,1,29.1-28A42.77,42.77,0,0,1,47,10c5.33-1.11,8.74,2.06,7.69,7.28A15.55,15.55,0,0,1,44.94,29a4.31,4.31,0,0,1-3.32-.53c-.51-.31-.51-1.7-.44-2.58a1.59,1.59,0,0,1,1.19-1c5.1-.2,10.68-5.2,10.94-9.9a4.24,4.24,0,0,0-4.87-4.39,17.21,17.21,0,0,0-6.75,1.88c-16.29,9.59-28.38,22.81-34.1,41-.82,2.61-.68,6.68.87,8.6,2.22,2.74,6.31,1.41,8.92-.39,7-4.82,13.86-10,20.55-15.27,3.76-3,7.1-6.49,10.63-9.77Z" transform="translate(-2.76)"/><path class="cls-1" d="M219.5,58.62c-2,1.83-3.94,3.76-6.08,5.43-.72.57-2.47,1-2.86.56-.83-.83-1.76-2.51-1.42-3.35a68.59,68.59,0,0,1,4.74-9.32c2.21-3.69,4.69-7.22,6.54-11.58l-7.63,3.74c.71-1.79,1.08-2.86,1.58-3.86.11-.22.68-.24,1-.28,5.44-.54,9.77-2.64,12.55-7.7,1.16-2.13,3.43-3.33,6-1.2l-6.07,6.54c6,.27,11.13.6,16.27.64.83,0,1.77-1.15,2.5-1.93,1.44-1.54,2.71-3.23,4.15-4.77,1.67-1.8,3.51-2.18,5.33-.48l-6.25,6.77h14.54v.58c-4.2.26-8.44.28-12.59.91a8.18,8.18,0,0,0-5.14,2.82c-4.35,6.39-8.29,13.06-12.38,19.62l.79.78,4-2,.35.39a21,21,0,0,1-3.48,2.89c-1,.56-3.17,1-3.43.6a9.37,9.37,0,0,1-1-4.11,8.71,8.71,0,0,1,.47-2.41c2.85-4.28,5.58-8.65,8.6-12.81,1.59-2.18,2.47-4.1.28-6.51-4.09.22-8.31.3-12.5.74a5,5,0,0,0-3.22,2C221.3,47,217.64,52.92,214,58.78a26.68,26.68,0,0,0-1.46,3.16l.62.55Z" transform="translate(-2.76)"/><path class="cls-1" d="M120.09,38.55c-4.47.21-8.94.36-13.4.68a4.24,4.24,0,0,0-2.93,1.21c-4.66,7-9.15,14-13.69,21l.79.75,3.36-.65c-1.77,1.44-3.06,4.71-5.93,2.84-3.22-2.09-.94-5.58,0-7.53,2.24-4.59,5.6-8.63,8.5-12.9a6.09,6.09,0,0,0,1.25-3.58L92,43.56,91,43.21c.52-1,.95-2.85,1.57-2.91,6.37-.64,10.81-4,14.42-9,1.34-1.85,3.38-1.74,5-.18l-6,6.37Z" transform="translate(-2.76)"/><path class="cls-1" d="M110,57.86c2.27-3.58,4.51-7.18,6.83-10.73,1.74-2.65,3.85-5.14,3.09-8.67a5.29,5.29,0,0,0,5.26-2.64,16.51,16.51,0,0,1,4-4.41c1.12-.84,2.81-.91,4.25-1.32l.35.94-5.53,6.61h14.16v.73c-4.13.28-8.31.28-12.38,1a9,9,0,0,0-5.4,3c-3.79,5.19-7.16,10.69-10.61,16.12A25.09,25.09,0,0,0,112.46,62l.74.6,5-3.44.41.44c-2,1.66-3.9,3.41-6,4.94a2.23,2.23,0,0,1-2.19-.11,5.81,5.81,0,0,1-1.28-3.12A12.17,12.17,0,0,1,110,57.86Z" transform="translate(-2.76)"/><path class="cls-1" d="M267.89,55.48l-7.77,9.24c-.15-1.23-.79-2.82-.38-4.06a29.48,29.48,0,0,1,3.6-7.78c5-7,10.17-13.9,15.39-20.76,1.36-1.79,3.2-2.76,5-1.31L265.16,55.46l.94.83Z" transform="translate(-2.76)"/><path class="cls-1" d="M164.77,59.26c4.55-3.92,9.36-7.59,13.5-11.9,1.34-1.4,1.15-4.46,1.21-6.78.05-1.55-.7-3.12-.5-4.84,3,2.56,3.58,5.94,3.48,9.78l2.89,1.78.1,0c-7.95,2.44-12.55,8.3-16.76,15.52,5.38,1.19,8.18-2.53,12.2-3.16-3.15,1.65-6.18,3.56-9.46,4.88-3.49,1.4-5.22-.06-5.43-3.79,0-.53-.84-1-1.3-1.53C164.69,59.17,164.77,59.26,164.77,59.26Z" transform="translate(-2.76)"/><path class="cls-1" d="M278,60.91c3.78-3.83,7.4-7.85,11.42-11.41a15.58,15.58,0,0,1,6.36-2.87,4.43,4.43,0,0,1,3.73,1c.5.57,0,2.84-.77,3.49a47.69,47.69,0,0,1-10,6.56L299.82,48c-6.37.5-15.41,9.35-16.07,15,4.31.77,7.07-2.37,10.38-4-1.74,2.58-7.93,6.53-10.55,5.89-1.66-.4-2.91-2.46-4.34-3.77l.69-1-2,.6Z" transform="translate(-2.76)"/><path class="cls-1" d="M260,51.5c.26-1,.52-2,.79-3.13-5.55.43-14.24,8.93-14.91,14.66,4.47.78,7.4-2.64,11.27-3.56-2.62,1.56-5.15,3.32-7.9,4.61-1.91.89-4.71,2.37-5.89-.4-.82-1.94-.84-5.24.32-6.8,3.47-4.68,7.74-8.83,13.78-10.19,1.31-.3,3.45.05,4.14.93s-.32,2.69-.58,4.1Z" transform="translate(-2.76)"/><path class="cls-1" d="M64.68,56.59c4.81-4.18,9.38-8.77,16-10.13a12.22,12.22,0,0,1,4.53.24c-7.07,1.5-15.86,8.91-18.13,16.15l6.51-4,.41.61-8,5.79c-4.87-2.47-1.79-5.62-1.34-8.45Z" transform="translate(-2.76)"/><path class="cls-1" d="M277.9,60.83A23.91,23.91,0,0,1,274.34,64c-.89.53-2.93.87-3.16.5-.68-1.1-1.36-2.9-.89-3.87,1.66-3.38,3.8-6.53,6.34-10.73l-6,3.78-.45-.58c3-2,6-4.17,9.07-6.09a2.25,2.25,0,0,1,2.1.73,3.13,3.13,0,0,1-.18,2.59c-1.65,2.61-3.56,5.08-5.29,7.65-.85,1.26-1.52,2.65-2.74,4.79L278,60.91Z" transform="translate(-2.76)"/><path class="cls-1" d="M128.65,60.26c-1.81,1.4-3.47,3.09-5.49,4-.75.36-3.36-1-3.35-1.6a11.23,11.23,0,0,1,1.44-5.86,95.91,95.91,0,0,1,7.3-8.84c1.37-1.59,2.78-2.08,4,.1l-9.36,13.4,1,.76,4.15-2.55Z" transform="translate(-2.76)"/><path class="cls-1" d="M98.12,58.61c2.85-3.53,5.6-7.14,8.64-10.48.55-.6,2.33-.09,4-.09L100.9,61.59l.8.91,5.63-3.43a72.93,72.93,0,0,1-5.69,5c-.79.57-2.75.84-3.14.39-.69-.82-.69-2.29-.77-3.51A9.86,9.86,0,0,1,98.12,58.61Z" transform="translate(-2.76)"/><path class="cls-1" d="M220.27,57.86c2.45-2.93,4.91-5.84,7.33-8.79,1.57-1.9,3.06-2.43,4.41-.38l-8.84,12.82.92.87,5.9-3.79c-2,1.83-3.83,3.79-6,5.43-.78.6-2.73,1-3.14.53-.73-.79-.82-2.27-.92-3.48A18.42,18.42,0,0,1,220.27,57.86Z" transform="translate(-2.76)"/><path class="cls-1" d="M44.4,65.29c0-1.37-.52-3.07.09-4.07,2.85-4.6,5.95-9.06,9.11-13.46,1.43-2,2.88-1.49,3.81.36L45.61,65.31Z" transform="translate(-2.76)"/><path class="cls-1" d="M79.86,62.58,85.43,59l.41.53a77.08,77.08,0,0,1-7,4.95c-.61.35-2.94-.75-2.92-1.07.22-2.76-.71-5.86,2.06-8,1.84-1.44,3.53-3.08,5.37-4.7,2.09,1.07,2.47,2.06.82,3.9-2,2.2-3.57,4.72-5.33,7.11Z" transform="translate(-2.76)"/><path class="cls-1" d="M64.68,56.59v.2a5,5,0,0,1-1.39.49c-1.53,0-3,0-4.58,0,.2-1.46.38-2.92.61-4.37a13.16,13.16,0,0,1,.58-1.69l-2.53.91-.31-.51c2.41-1.62,4.74-3.39,7.28-4.77.77-.42,2.12.23,3.81.49l-7.42,9.27Z" transform="translate(-2.76)"/><path class="cls-1" d="M202.84,55.94c-3.33-.68-4.65-2.94-2.39-4.85,2.82-2.39,6.41-3.9,9.77-5.57.42-.22,2.16.88,2.15,1.34a20.59,20.59,0,0,1-1,4.36l-1.06-.37,1.41-2.24c-.34-.26-.62-.55-.69-.51-2.9,1.77-5.82,3.52-8.61,5.45-.3.21.22,1.57.36,2.39Z" transform="translate(-2.76)"/><path class="cls-1" d="M304.57,56c-3.49-.8-4.7-3.17-2.17-5.19,2.88-2.32,6.54-3.75,10-5.16.5-.2,1.92,1.85,2.91,2.86l-1.06.8c-.24-.38-.41-1-.73-1.12-2.48-.67-10,4.52-10.06,7,0,.27.68.56,1,.83Z" transform="translate(-2.76)"/><path class="cls-1" d="M304.53,56c.41,1.82,4.13,3.23,1.58,5.17s-6,2.8-9.11,4.12c-.28-.88-1.06-2.18-.74-2.57a6.47,6.47,0,0,1,3.27-2.17,6.13,6.13,0,0,0,5-4.55Z" transform="translate(-2.76)"/><path class="cls-1" d="M202.8,55.94c.36,1.84,3.7,2.69,1.7,5.35-1.66,2.2-7.54,4.75-9.65,3.91a2.85,2.85,0,0,1-1.23-1.55c-.07-.17.73-1,1.17-1,4.29-.36,7-2.54,8-6.7Z" transform="translate(-2.76)"/><path class="cls-1" d="M185.35,47.3c0,1,.44,2.52-.07,3A48.17,48.17,0,0,1,176.12,57q4.65-4.87,9.32-9.75Z" transform="translate(-2.76)"/><path class="cls-1" d="M115.52,41.2l-5,4.3-1.06-.7a23,23,0,0,1,2.66-4.42C112.43,40,114.09,40.82,115.52,41.2Z" transform="translate(-2.76)"/><path class="cls-1" d="M231.36,44.82c.77-1.46,1.28-3.18,2.41-4.27.57-.55,2.25,0,3.44.09l.1.92-4.92,3.93Z" transform="translate(-2.76)"/><path class="cls-2" d="M23.25,90.19A10.82,10.82,0,0,1,25.16,90a3.37,3.37,0,0,1,2.22.58A1.72,1.72,0,0,1,28.05,92a1.92,1.92,0,0,1-1.37,1.78v0a2.08,2.08,0,0,1,1.67,2,2.19,2.19,0,0,1-.68,1.62,4.12,4.12,0,0,1-2.8.75,14.11,14.11,0,0,1-1.62-.09ZM24.3,93.5h.95c1.1,0,1.75-.57,1.75-1.35,0-1-.72-1.32-1.78-1.32a5,5,0,0,0-.92.07Zm0,3.88a6.25,6.25,0,0,0,.87.05c1.08,0,2.08-.4,2.08-1.57s-.95-1.56-2.09-1.56H24.3Z" transform="translate(-2.76)"/><path class="cls-2" d="M36.87,94.38H33.73v2.91h3.5v.88H32.69V90.09h4.36V91H33.73v2.56h3.14Z" transform="translate(-2.76)"/><path class="cls-2" d="M42.83,95.63,42,98.17H40.91l2.74-8.08h1.26l2.76,8.08H46.55l-.86-2.54Zm2.65-.82-.8-2.32c-.18-.53-.3-1-.42-1.48h0c-.12.48-.25,1-.41,1.46L43,94.81Z" transform="translate(-2.76)"/><path class="cls-2" d="M52.5,90.09v4.78c0,1.81.8,2.58,1.88,2.58s2-.79,2-2.58V90.09h1V94.8c0,2.48-1.3,3.5-3.06,3.5s-2.9-1-2.9-3.45V90.09Z" transform="translate(-2.76)"/><path class="cls-2" d="M63.68,91H61.22v-.88h6V91H64.74v7.2H63.68Z" transform="translate(-2.76)"/><path class="cls-2" d="M73.17,98.17V94.74l-2.55-4.65H71.8l1.14,2.23c.32.61.56,1.1.81,1.66h0c.23-.52.51-1,.82-1.66l1.16-2.23h1.19l-2.71,4.64v3.44Z" transform="translate(-2.76)"/><path class="cls-2" d="M87.57,95.63l-.84,2.54H85.65l2.75-8.08h1.26l2.76,8.08H91.3l-.86-2.54Zm2.65-.82-.79-2.32c-.18-.53-.3-1-.42-1.48h0c-.12.48-.25,1-.41,1.46l-.79,2.34Z" transform="translate(-2.76)"/><path class="cls-2" d="M96.54,98.17V90.09h1.14l2.59,4.09a22.21,22.21,0,0,1,1.45,2.62h0c-.09-1.08-.12-2.06-.12-3.32V90.09h1v8.08h-1.06L99,94.07a27.44,27.44,0,0,1-1.51-2.7h0c.06,1,.08,2,.08,3.34v3.45Z" transform="translate(-2.76)"/><path class="cls-2" d="M107.36,90.19a15.93,15.93,0,0,1,2.22-.16,4.6,4.6,0,0,1,3.27,1A3.74,3.74,0,0,1,114,93.94a4.26,4.26,0,0,1-1.16,3.14,5,5,0,0,1-3.57,1.16,17,17,0,0,1-1.9-.09Zm1,7.15a6.25,6.25,0,0,0,1,.06A3.1,3.1,0,0,0,112.9,94c0-1.9-1.06-3.12-3.27-3.12a5.82,5.82,0,0,0-1.22.11Z" transform="translate(-2.76)"/><path class="cls-2" d="M123.75,90.09h4.36V91H124.8v2.69h3.06v.86H124.8v3.66h-1Z" transform="translate(-2.76)"/><path class="cls-2" d="M132.9,95.63l-.84,2.54H131l2.74-8.08H135l2.76,8.08h-1.11l-.87-2.54Zm2.65-.82-.79-2.32c-.18-.53-.3-1-.42-1.48h0c-.12.48-.25,1-.41,1.46l-.79,2.34Z" transform="translate(-2.76)"/><path class="cls-2" d="M141.72,96.9a3.68,3.68,0,0,0,1.87.53c1.07,0,1.69-.57,1.69-1.38s-.43-1.19-1.52-1.61c-1.32-.47-2.14-1.15-2.14-2.29a2.34,2.34,0,0,1,2.62-2.2,3.7,3.7,0,0,1,1.78.4l-.28.85a3.33,3.33,0,0,0-1.54-.38c-1.1,0-1.52.66-1.52,1.21,0,.76.49,1.13,1.6,1.56,1.37.53,2.07,1.19,2.07,2.37s-.93,2.33-2.83,2.33a4.21,4.21,0,0,1-2.07-.52Z" transform="translate(-2.76)"/><path class="cls-2" d="M151.75,90.09v3.38h3.91V90.09h1.05v8.08h-1.05V94.38h-3.91v3.79h-1V90.09Z" transform="translate(-2.76)"/><path class="cls-2" d="M162.5,90.09v8.08h-1V90.09Z" transform="translate(-2.76)"/><path class="cls-2" d="M174.16,94c0,2.79-1.69,4.26-3.75,4.26s-3.64-1.65-3.64-4.1,1.6-4.25,3.76-4.25S174.16,91.65,174.16,94Zm-6.27.14c0,1.72.93,3.27,2.58,3.27s2.59-1.52,2.59-3.36c0-1.6-.84-3.28-2.58-3.28S167.89,92.4,167.89,94.18Z" transform="translate(-2.76)"/><path class="cls-2" d="M178.45,98.17V90.09h1.14l2.59,4.09a22.21,22.21,0,0,1,1.45,2.62h0c-.09-1.08-.12-2.06-.12-3.32V90.09h1v8.08h-1.06l-2.56-4.1a25.67,25.67,0,0,1-1.52-2.7h0c.06,1,.08,2,.08,3.34v3.45Z" transform="translate(-2.76)"/><path class="cls-2" d="M194.74,90.19A16,16,0,0,1,197,90a4.65,4.65,0,0,1,3.28,1,3.74,3.74,0,0,1,1.14,2.91,4.26,4.26,0,0,1-1.17,3.14,5,5,0,0,1-3.57,1.16,17.16,17.16,0,0,1-1.9-.09Zm1,7.15a6.32,6.32,0,0,0,1.05.06A3.11,3.11,0,0,0,200.29,94c0-1.9-1.07-3.12-3.28-3.12a5.82,5.82,0,0,0-1.22.11Z" transform="translate(-2.76)"/><path class="cls-2" d="M209.85,94.38h-3.14v2.91h3.5v.88h-4.55V90.09H210V91h-3.32v2.56h3.14Z" transform="translate(-2.76)"/><path class="cls-2" d="M214.35,96.9a3.68,3.68,0,0,0,1.87.53c1.07,0,1.7-.57,1.7-1.38s-.44-1.19-1.53-1.61c-1.32-.47-2.13-1.15-2.13-2.29a2.33,2.33,0,0,1,2.61-2.2,3.72,3.72,0,0,1,1.79.4l-.29.85a3.24,3.24,0,0,0-1.53-.38c-1.11,0-1.53.66-1.53,1.21,0,.76.49,1.13,1.61,1.56,1.37.53,2.06,1.19,2.06,2.37s-.92,2.33-2.83,2.33a4.13,4.13,0,0,1-2.06-.52Z" transform="translate(-2.76)"/><path class="cls-2" d="M224.38,90.09v8.08h-1V90.09Z" transform="translate(-2.76)"/><path class="cls-2" d="M235.29,97.81a7.5,7.5,0,0,1-2.48.44,3.78,3.78,0,0,1-4.15-4.07A4.05,4.05,0,0,1,233,90a5.17,5.17,0,0,1,2,.37l-.25.86a4.06,4.06,0,0,0-1.79-.35,3,3,0,0,0-3.25,3.25,3,3,0,0,0,3.12,3.26,3.39,3.39,0,0,0,1.39-.22V94.76h-1.64v-.84h2.66Z" transform="translate(-2.76)"/><path class="cls-2" d="M239.82,98.17V90.09H241l2.59,4.09A23.75,23.75,0,0,1,245,96.8h0c-.09-1.08-.12-2.06-.12-3.32V90.09h1v8.08h-1.06l-2.57-4.1a27.44,27.44,0,0,1-1.51-2.7h0c.06,1,.08,2,.08,3.34v3.45Z" transform="translate(-2.76)"/><path class="cls-2" d="M256,96.9a3.68,3.68,0,0,0,1.87.53c1.07,0,1.69-.57,1.69-1.38s-.43-1.19-1.52-1.61c-1.32-.47-2.14-1.15-2.14-2.29a2.34,2.34,0,0,1,2.62-2.2,3.7,3.7,0,0,1,1.78.4l-.28.85a3.33,3.33,0,0,0-1.54-.38c-1.1,0-1.52.66-1.52,1.21,0,.76.49,1.13,1.6,1.56,1.37.53,2.07,1.19,2.07,2.37s-.93,2.33-2.83,2.33a4.21,4.21,0,0,1-2.07-.52Z" transform="translate(-2.76)"/><path class="cls-2" d="M266.49,91H264v-.88h6V91h-2.47v7.2h-1.06Z" transform="translate(-2.76)"/><path class="cls-2" d="M280.43,94c0,2.79-1.69,4.26-3.75,4.26S273,96.65,273,94.2,274.64,90,276.8,90,280.43,91.65,280.43,94Zm-6.27.14c0,1.72.93,3.27,2.58,3.27s2.59-1.52,2.59-3.36c0-1.6-.84-3.28-2.58-3.28S274.16,92.4,274.16,94.18Z" transform="translate(-2.76)"/><path class="cls-2" d="M284.72,90.19a11.65,11.65,0,0,1,2-.16,3.28,3.28,0,0,1,2.34.66,2,2,0,0,1,.64,1.53,2.11,2.11,0,0,1-1.53,2.06v0A2,2,0,0,1,289.36,96a13,13,0,0,0,.63,2.22h-1.08a9.25,9.25,0,0,1-.54-1.93c-.24-1.12-.68-1.54-1.62-1.57h-1v3.5h-1Zm1,3.69h1.07c1.12,0,1.82-.62,1.82-1.54s-.75-1.5-1.86-1.51a4.15,4.15,0,0,0-1,.1Z" transform="translate(-2.76)"/><path class="cls-2" d="M298.29,94.38h-3.14v2.91h3.5v.88H294.1V90.09h4.37V91h-3.32v2.56h3.14Z" transform="translate(-2.76)"/><line class="cls-3" x1="17.69" y1="80.77" x2="295.22" y2="80.77"/></svg>