<?xml version="1.0" encoding="utf-8"?>
<!-- Generator: Adobe Illustrator 24.1.1, SVG Export Plug-In . SVG Version: 6.00 Build 0)  -->
<svg version="1.1" id="Layer_1" xmlns="http://www.w3.org/2000/svg" xmlns:xlink="http://www.w3.org/1999/xlink" x="0px" y="0px"
	 viewBox="0 0 4041.18 1492.14" style="enable-background:new 0 0 4041.18 1492.14;" xml:space="preserve">
<g>
	<path d="M1337.46,919.62v133.04h-47.79V748.78h209.72c31.15,0,55.52,7.49,73.12,22.47c17.59,14.98,26.39,35.79,26.39,62.42
		c0,21.64-6.96,40.36-20.86,56.17c-13.91,15.82-32.04,25.5-54.39,29.07l84.53,133.75h-51.72l-86.31-133.04H1337.46z M1337.46,875.03
		h161.93c16.41,0,28.95-3.57,37.63-10.7c8.68-7.13,13.02-17.35,13.02-30.67c0-13.31-4.34-23.48-13.02-30.5
		c-8.68-7.01-21.22-10.52-37.63-10.52h-161.93V875.03z"/>
	<path d="M1613.87,1052.66l154.79-304.59h29.96l156.22,304.59h-51l-39.59-77.4H1703.4l-39.23,77.4H1613.87z M1724.08,934.96h119.13
		L1784,818.32L1724.08,934.96z"/>
	<path d="M2046.51,1052.66V790.5h-128.4v-42.44h304.59v42.44h-128.76v262.15H2046.51z"/>
	<path d="M2270.5,1052.66V747.35h48.51v305.31H2270.5z"/>
	<path d="M2496.27,1052.66V790.5h-128.4v-42.44h304.59v42.44h-128.76v262.15H2496.27z"/>
	<path d="M2720.26,748.78h47.79v195.1c0,29.25,6.89,48.99,20.69,59.21c13.79,10.23,41.13,15.34,82.03,15.34
		c41.13,0,68.6-5.11,82.39-15.34c13.79-10.22,20.69-29.96,20.69-59.21v-195.1h47.44v207.58c0,37.33-11.83,64.32-35.49,80.96
		c-23.66,16.64-62.24,24.97-115.74,24.97c-53.27,0-91.55-8.2-114.85-24.61c-23.31-16.41-34.95-43.51-34.95-81.32V748.78z"/>
	<path d="M3261.68,748.06c49.69,0,89.76,14.21,120.2,42.62c30.43,28.42,45.65,65.33,45.65,110.75c0,45.89-14.92,82.57-44.76,110.03
		c-29.84,27.46-70.21,41.2-121.09,41.2H3126.5V748.06H3261.68z M3262.39,791.93h-88.1v216.85h88.1c36.14,0,64.56-9.69,85.24-29.07
		c20.69-19.38,31.03-45.71,31.03-79c0-32.1-10.7-58.25-32.1-78.47C3325.17,802.04,3297.11,791.93,3262.39,791.93z"/>
	<path d="M3502.79,1052.66V748.06h285.69v44.58h-237.9v75.97h156.22v43.87h-156.22v96.3h251.09v43.87H3502.79z"/>
</g>
<g>
	<path d="M1289.66,1339.72l12.01-20.69c10.83,7.27,22.65,12.93,35.46,16.99c12.8,4.06,25.06,6.1,36.76,6.1
		c14.04,0,25.37-2.86,33.99-8.59c8.62-5.73,12.93-13.08,12.93-22.07c0-8.99-3.94-15.67-11.82-20.04c-7.88-4.37-20.32-6.8-37.31-7.3
		c-28.69-0.37-48.39-3.69-59.1-9.97c-10.71-6.28-16.07-16.68-16.07-31.21c0-13.54,5.88-24.44,17.64-32.69
		c11.76-8.25,27.55-12.38,47.38-12.38c13.54,0,26.69,1.91,39.43,5.73c12.75,3.82,25.03,9.48,36.85,16.99l-12.38,20.5
		c-9.85-6.65-20.44-11.79-31.77-15.42c-11.33-3.63-22.17-5.45-32.51-5.45c-11.95,0-21.55,2.1-28.81,6.28
		c-7.27,4.19-10.9,9.67-10.9,16.44c0,7.02,3.66,12.01,10.99,14.96c7.32,2.96,20.04,4.43,38.14,4.43c25.12,0,44.08,4.25,56.89,12.74
		c12.81,8.5,19.21,21.12,19.21,37.86c0,14.9-6.5,27.28-19.49,37.13c-12.99,9.85-29.83,14.78-50.52,14.78
		c-15.27,0-30.45-2.19-45.53-6.56C1316.04,1353.92,1302.22,1347.73,1289.66,1339.72z"/>
	<path d="M1527.93,1359.86V1224.1h-66.49v-21.98h157.74v21.98h-66.68v135.76H1527.93z"/>
	<path d="M1643.92,1359.86v-158.11h25.12v158.11H1643.92z"/>
	<path d="M1760.84,1359.86V1224.1h-66.49v-21.98h157.74v21.98h-66.68v135.76H1760.84z"/>
	<path d="M2033.28,1321.25c-8.99,14.16-20.78,24.97-35.37,32.42c-14.59,7.45-31.19,11.17-49.78,11.17
		c-27.71,0-50.52-7.85-68.43-23.55c-17.92-15.7-26.87-35.62-26.87-59.75c0-24.13,8.96-44.11,26.87-59.94
		c17.92-15.82,40.73-23.73,68.43-23.73c17.24,0,32.88,3.23,46.92,9.7c14.04,6.46,25.36,15.61,33.99,27.43l-19.58,13.67
		c-6.53-8.99-15.12-15.91-25.77-20.78c-10.65-4.86-22.5-7.3-35.56-7.3c-20.2,0-36.91,5.76-50.15,17.27
		c-13.24,11.51-19.86,25.95-19.86,43.31s6.65,31.8,19.95,43.31c13.3,11.52,29.98,17.27,50.05,17.27c14.04,0,26.41-2.77,37.13-8.31
		c10.71-5.54,20.13-14.16,28.26-25.86L2033.28,1321.25z"/>
	<path d="M2099.4,1286.53v73.33h-24.75v-157.74h24.75v61.32h110.82v-61.32h24.57v157.74h-24.57v-73.33H2099.4z"/>
	<path d="M2288.35,1359.86v-157.74h147.95v23.09h-123.2v39.34h80.9v22.72h-80.9v49.87h130.03v22.72H2288.35z"/>
	<path d="M2464.75,1339.72l12.01-20.69c10.83,7.27,22.65,12.93,35.46,16.99c12.8,4.06,25.06,6.1,36.76,6.1
		c14.04,0,25.37-2.86,33.99-8.59c8.62-5.73,12.93-13.08,12.93-22.07c0-8.99-3.94-15.67-11.82-20.04c-7.88-4.37-20.32-6.8-37.31-7.3
		c-28.69-0.37-48.39-3.69-59.1-9.97c-10.71-6.28-16.07-16.68-16.07-31.21c0-13.54,5.88-24.44,17.64-32.69
		c11.76-8.25,27.55-12.38,47.38-12.38c13.54,0,26.69,1.91,39.43,5.73c12.75,3.82,25.03,9.48,36.85,16.99l-12.38,20.5
		c-9.85-6.65-20.44-11.79-31.77-15.42c-11.33-3.63-22.17-5.45-32.51-5.45c-11.95,0-21.55,2.1-28.81,6.28
		c-7.27,4.19-10.9,9.67-10.9,16.44c0,7.02,3.66,12.01,10.99,14.96c7.32,2.96,20.04,4.43,38.14,4.43c25.12,0,44.08,4.25,56.89,12.74
		c12.81,8.5,19.21,21.12,19.21,37.86c0,14.9-6.5,27.28-19.49,37.13c-12.99,9.85-29.83,14.78-50.52,14.78
		c-15.27,0-30.45-2.19-45.53-6.56C2491.13,1353.92,2477.31,1347.73,2464.75,1339.72z"/>
</g>
<g>
	<path d="M436.25,603.69c-8.93,72.76-7.16,146.22,0.11,219.43c10.03,100.95,59.1,149.72,135.02,167.54
		c64.86,15.22,129.78,24.89,195.84,26.96c61.47,1.92,122.05-6.85,182.6-16.25c57.9-8.99,105.88-36.31,126.44-114.76
		c15.69-59.84,55.56-86.73,101.65-100.95c24.67-7.61,39.53,3.32,45.84,35.23c16.37,82.7,14,130.13,14,130.13
		c-2.86,72.41,5.35,52.65,3.77,153.69c0,0-1.64,104.92-31.02,149.08c-5.9,8.87-12.57,17.71-12.57,17.71
		c-4.26,5.64-7.91,10.15-10.36,13.11c-10.73,1.98-21.45,3.96-32.18,5.94c-7.67-6.45-19.1-16.01-33.07-27.52
		c-18.22-15.01-35.43-29.19-41.7-33.92c-36.08-27.21-97.98-27.9-140.89-25.35c-72.86,4.34-109.92,17.81-167.85,29.54
		c-38.46,7.79-134.27,26.49-247.15,15.45c-65.89-6.45-145.9-14.78-222.17-70.44c-81.46-59.45-120.88-136.74-138.68-211.87
		c-36.03-152.05-42.72-307.2-13.23-463.07c20.59-108.76,65.59-193.42,150.47-237c58.06-29.81,119.26-42.49,181.57-45.91
		c135.21-7.41,267.61,25.35,400.78,46.37c62.86,9.92,125.13,15.09,187.89-1.82c87.74-23.64,143.33-88.2,164.98-198.32
		c4.2-21.34,8.18-42.76,12.26-64.14c15.49,71.64,16.59,142.12,6.27,212.61c-15.45,105.57-64.54,175.57-145.67,205.41
		c-84.32,31.01-171.33,21.39-257.67,17.59c-92.91-4.09-186.08-15.11-278.17,10.79C505.01,468.17,448.17,506.46,436.25,603.69z"/>
	<path d="M1099.14,739.2c1.1-19.28,13.45-25.3,25.99-25.6c30.9-0.75,61.87-0.37,92.75,1.34c12.13,0.68,25.33,5.84,27.99,23.96
		c2.83,19.27-8.63,27.61-21.05,31.26c-13.67,4.02-21.88,11.55-21.08,30.87c0.23,5.64,1.24,10.19,2.89,13.89h-64.39
		c4.53-17.22-3.79-33.74-23.76-45.69C1107.86,762.88,1098.2,755.61,1099.14,739.2z"/>
	<path d="M1201.68,1492.14c-1.2-27.96-4.29-51.44-7.34-69.27c-2.99-17.51-2.71-10.66-8.83-41.6c-2.37-11.96-6.43-32.63-17.35-53.76
		c-2.62-5.08-5.38-9.69-9.83-16.3c-12.25-18.24-31.9-47.47-54.61-66.42c-48.55-40.5-119.94-41.33-126.93-41.33
		c-24.17,0-48.41,4.43-57.44-9.23c-5.75-8.69-1-19.92-0.59-26.43c2.26-35.82,4.52-71.63,6.78-107.45c4.21,0.2,11.23,0.4,19.84,0
		c106.22-4.9,235.34-67.05,268.96-154.64c3.47-9.05,8.68-25.53,13.75-24.98c3.32,0.36,7.84,8.15,11.7,94.3
		c1.99,44.4,2.98,66.6,2.53,102.73c-0.56,44-2.82,75.55-6.13,120.61c-4.86,66.13-10.7,119.13-14.41,150.49
		C1216.95,1389.59,1210.48,1437.87,1201.68,1492.14z"/>
</g>
</svg>
